<svg id="Travel" height="512" viewBox="0 0 64 64" width="512" xmlns="http://www.w3.org/2000/svg"><circle cx="38" cy="58" fill="#3e3d42" r="3"/><circle cx="55" cy="58" fill="#3e3d42" r="3"/><circle cx="28" cy="29" fill="#3d9ae2" r="23"/><circle cx="28" cy="29" fill="#3d9ae2" r="23"/><path d="m46.7 15.62a22.982 22.982 0 0 1 -13.35 35.74l-1.35-3.36-3-6-2-3-3-4 1-5 2-5 8-2 7-2z" fill="#91dc5a"/><path d="m41.44 10.34c-.52.92-1.05 1.66-1.44 1.66-1 0-4 3-5 3s-6 2-6 2l-8-3-5.77-4.12a22.968 22.968 0 0 1 26.21.46z" fill="#91dc5a"/><path d="m22 41-1 5-2.6 3.9a23 23 0 0 1 -9.49-33.73l6.09 1.83 2 5 5 4s-2 2-2 3-1 4 0 5 2 6 2 6z" fill="#91dc5a"/><path d="m29 13h-6.385l-4.615-10h-4v10h-5.714l-1.286-4h-4v14h4l1.286-4h5.714v10h4l4.615-10h6.385a3 3 0 0 0 3-3 3 3 0 0 0 -3-3z" fill="#ed626f"/><rect fill="#ffa733" height="33" rx="2" width="29" x="32" y="25"/><path d="m54 25h-2v-18a3 3 0 0 0 -3-3h-4a3 3 0 0 0 -3 3v18h-2v-18a5.006 5.006 0 0 1 5-5h4a5.006 5.006 0 0 1 5 5z" fill="#57565c"/><g fill="#ef8746"><path d="m55 30h2v23.64h-2z"/><path d="m49 30h2v23.64h-2z"/><path d="m43 30h2v23.64h-2z"/><path d="m37 30h2v23.64h-2z"/></g><path d="m56.49 45.325-4.783 4.783a1 1 0 0 1 -1.656-.391l-2.391-7.174a1 1 0 0 1 1.265-1.265l7.175 2.391a1 1 0 0 1 .39 1.656z" fill="#5bcbfa"/><path d="m37 32h10v7h-10z" fill="#ed626f" transform="matrix(.707 -.707 .707 .707 -12.801 40.096)"/></svg>